<?xml version="1.0" encoding="utf-8"?>
<svg version="1.1" id="Layer_1" xmlns="http://www.w3.org/2000/svg" xmlns:xlink="http://www.w3.org/1999/xlink" x="0px" y="0px"
	 viewBox="0 0 62.4 84.5" style="enable-background:new 0 0 62.4 84.5;" xml:space="preserve">
<style type="text/css">
	.st0{fill-rule:evenodd;clip-rule:evenodd;}
</style>
<path class="st0" d="M60.2,20.4L59,20.1c-0.7,0.4-0.9,0.6-0.5,0.6c0.2,0,0.5-0.1,0.9-0.2C59.8,20.4,60,20.4,60.2,20.4L60.2,20.4z
	 M58.9,39.3v-0.3h-1.4v0.3H58.9L58.9,39.3z M61,20.2c-0.1,0.2-0.4,0.6-0.6,1.1c-1.5,0.1-2.1,0.2-1.7,0.2c-0.4,0-1.1-0.2-2.2-0.7
	c1.3-0.7,2.1-1.1,2.2-1.1h1.8L61,20.2L61,20.2z M59.5,38.6c0.1,0.8-0.3,1.2-1.4,1.2c-1.2,0-1.8-0.5-1.8-1.6
	C57.4,38.5,58.5,38.6,59.5,38.6L59.5,38.6z M46.6,60.6v-1c-0.4-0.8-0.9-1.3-1.6-1.3C45.1,58.5,45.6,59.2,46.6,60.6L46.6,60.6z
	 M44.7,57.4c-0.7-0.5-1.3-0.8-1.8-1.1c0.4,0.8,0.8,1.3,1.2,1.6c0.1-0.1,0.2-0.2,0.4-0.3C44.6,57.6,44.7,57.5,44.7,57.4L44.7,57.4z
	 M46.4,44.8l-0.3,1.2c-0.2-0.2-0.3-0.5-0.3-0.8c0-0.4-0.3-0.7-0.9-1c0,0.4-0.3,1-0.8,1.8c-0.3,0-0.7,0-1.3,0.1
	c-0.6,0.1-1,0.1-1.2,0.1c-0.4,0-1-0.3-1.7-0.8c-0.1,0,0.5,0,1.6,0c0.6,0,1.1-0.2,1.5-0.5v-0.5c-0.4-0.4-0.7-0.5-0.7-0.5
	c-0.1,0-0.5,0-1,0.1c-0.5,0-0.8,0-1,0c0.3-0.5,1-0.7,2.2-0.7C44.4,43.1,45.7,43.6,46.4,44.8L46.4,44.8z M38.9,26.6
	c0,0.1,0,0.4-0.1,0.6c-0.1,0.3-0.1,0.5-0.2,0.6c0,0.1-0.2,0.2-0.4,0.3c-0.2,0.1-0.4,0.1-0.5,0.1c0.2-0.4,0.3-0.8,0.3-1.2
	c0-0.8-0.8-1.1-2.4-0.8v-0.8c0.1,0,0.2,0,0.5-0.1c0.2-0.1,0.5-0.1,0.7-0.1C38.2,25.1,38.9,25.6,38.9,26.6L38.9,26.6z M33,2
	c0-0.3-0.2-0.7-0.5-1.4c-0.5,0.3-0.7,0.7-0.7,1.2c0,0.6,0.4,1.1,1.1,1.3c0-0.1,0-0.2,0.1-0.5C33,2.4,33,2.2,33,2L33,2z M33.4,2.5
	c0,0.1,0,0.4-0.1,0.7c-0.1,0.3-0.1,0.5-0.1,0.7c-0.4,0-0.9-0.3-1.4-0.8c-0.5-0.5-0.7-0.9-0.7-1.2c0-1.3,0.4-1.9,1.2-1.9
	C33,0,33.4,0.8,33.4,2.5L33.4,2.5z M34.2,24.5c-0.9-0.5-1.4-0.7-1.5-0.7c-0.1,0-0.5,0.1-1.1,0.2c-0.6,0.1-1,0.2-1.3,0.2
	c1.1-0.8,1.9-1.2,2.4-1.2c0.4,0,0.8,0.1,1.4,0.4V24.5L34.2,24.5z M31.5,30.7c0,0.1-0.4,0.6-1.1,1.3c-0.5,0-0.9-0.3-1.2-0.8
	c0.4-0.9,0.9-1.4,1.5-1.4c0.1,0,0.3,0,0.4,0.1c0.1,0.1,0.2,0.1,0.3,0.1V30.7L31.5,30.7z M32.6,18.3c-0.4-1.1-1-1.7-1.9-1.7
	c-0.1,0-1,0.4-2.4,1.1c0.1-0.1,0.4-0.1,1.1-0.1C29.9,17.5,31,17.8,32.6,18.3L32.6,18.3z M29.3,71.1c-0.1-1.5-0.1-2.4-0.1-2.7
	c-0.6,0.9-0.9,1.7-1.1,2.4C28.5,71,28.9,71.1,29.3,71.1L29.3,71.1z M32.6,20.8c0-1.6-1.2-2.4-3.6-2.4c-0.5,0-1.5,0.2-3.1,0.5
	c2.6,0.7,4.1,1.9,4.5,3.6h1.1C32.2,22.5,32.6,21.9,32.6,20.8L32.6,20.8z M32.8,42.4c0,0.8-0.5,1.3-1.5,1.3c-0.9,0-2.1-0.5-3.7-1.6
	c-1.5-1.1-2.3-2.2-2.3-3.3c0-0.7,0.4-1.1,1.3-1.1c0.9,0,2.2,0.5,3.8,1.6C32,40.5,32.8,41.5,32.8,42.4L32.8,42.4z M27.8,25
	c-0.3,0-0.7-0.1-1.4-0.2c-0.6-0.1-1-0.2-1.2-0.2c-0.6,0-1.1,0.2-1.3,0.7c0.6,0.7,1.1,1.3,1.3,1.8C26,26.1,26.9,25.4,27.8,25L27.8,25
	z M46.2,76.3c0,1.8-0.7,3.3-2.2,4.7c-1.5,1.3-3.2,2.2-5.1,2.4c-0.2,0-1.2,0-3.1,0c-3.2,0-6-0.5-8.5-1.5c-3.3-1.3-5-3.3-5-5.9
	c0-1.3,0.7-2.3,2.1-3.1c1.1-0.6,2.1-1,3-1c2.1,0,3.4,0.5,3.7,1.6c0.2,0,0.3-0.1,0.3-0.4c0.4,0.2,1,0.5,1.9,1c0.8,0.4,1.4,0.7,1.9,1
	l0.3-0.3c-1-0.6-2-1.3-3.1-1.9c-1.3-0.8-2-1.8-2-2.9c0-1.3,1.5-2.3,4.4-3.1c2.9-0.8,4.4-1.7,4.4-2.7v-0.6l-0.3-0.3
	c-0.4,0-0.6,0.3-0.6,0.8c0,0.5-0.2,0.9-0.5,1c-0.7,0.6-1.9,1.1-3.6,1.6c-1.3,0.4-2.3,0.5-2.8,0.5c-1.6,0-3.4-2.2-5.4-6.6
	c2,1.2,4.3,1.8,6.9,1.8c4.1,0,7.5-1.6,10.1-4.7c1.8,1.7,2.8,3.3,3.2,4.7c-0.1,0-0.4-0.1-0.6-0.2c-0.3-0.1-0.5-0.2-0.7-0.2
	c-1.1,0-1.7,0.7-1.7,2.2c0,1.2,0.7,2,2.2,2.3c-0.8,1.2-2.1,2.2-4,3c-1.6,0.6-3.1,1.1-4.6,1.6c1.2,1.1,2.3,1.8,3.4,2.3l1-0.1
	c-0.3-0.4-0.8-0.7-1.5-1.1c0.2,0,0.5,0,1-0.1c0.5-0.1,0.8-0.1,0.9-0.1c1.3,0,2.5,0.4,3.3,1.2C45.7,74.1,46.2,75.1,46.2,76.3
	L46.2,76.3z M29.5,22.6c0,1.1-0.9,1.6-2.8,1.6c-0.8,0-1.8-0.4-3.1-1.1c0,0.5,0.1,1,0.2,1.4c-0.2,0.1-0.4,0.2-0.6,0.2
	c-0.4,0-1-0.4-1.8-1.1c-0.2-2.7,1-4,3.5-4c0.7,0,1.6,0.3,2.8,1C28.9,21.3,29.5,22,29.5,22.6L29.5,22.6z M54,31.2
	c0-4.2-1.2-8.3-3.5-12.3c-2.7-4.5-6.2-7.5-10.4-8.8c-3.9-1.2-6.3-1.8-7.3-1.8c-5.5,0-8.3,1.2-8.3,3.5c0,1.5,0.9,2.6,2.8,3.4
	c1.6,0.6,2.2,1,1.8,1c0.2,0,0.5-0.1,0.9-0.2c0.4-0.1,0.6-0.2,0.9-0.2c1.1,0,1.9,0.7,2.3,2.2c1.8,0.7,3.5,1.1,5.2,1.1
	c0.2,0,0.4,0,0.6-0.1c0.2-0.1,0.4-0.1,0.5-0.1c0.4,0,0.8,0.4,1.2,1.1c-0.8,0.4-1.2,0.6-1.3,0.6c-0.2,0-2.3-0.4-6.4-1.3
	c0.3,0.9,0.4,1.5,0.4,1.8c2.1,0.5,5.2,2.1,9.2,4.7v0.4l-0.1,0.1c-4.2-2.8-7.3-4.1-9-4.1c-0.2,0-0.7,0.2-1.4,0.5
	c-0.7,0.4-1.3,0.6-1.5,0.6C30,24,29.5,24.6,29,24.9c0.5-0.1,1.1,0.1,1.7,0.6c0.6,0.5,1,1,1.2,1.5c0.5-0.3,0.9-0.4,1.3-0.4
	c2.3,0,3.4,1,3.4,3.1c0,1-0.5,1.9-1.6,2.7c-1.1,0.8-2.1,1.2-3.2,1.2c-1.8,0-2.9-0.4-3.3-1.2c0.1-0.1,0.3-0.1,0.5,0
	c1.2,0.5,2.1,0.7,2.7,0.7c0.9,0,1.9-0.3,2.9-1c1-0.7,1.5-1.5,1.5-2.5c0-1.6-1-2.4-2.9-2.4c-2.7,0-4.3,1.3-4.9,3.9
	c-0.1,0-0.3-0.1-0.3-0.2c0-0.9,0.5-1.8,1.4-2.7c1.2-1,1.8-1.6,1.9-1.8c-0.4-0.8-1.1-1.2-2.1-1.2c-0.4,0-1.1,0.2-1.9,0.5
	c-1.1,0.4-1.7,1-1.7,1.7v0.8c0.6-0.3,1-0.4,1.2-0.4c0.6,0,0.8,0.4,0.8,1.1c0,0.2-0.1,0.5-0.4,0.8c-0.3,0.3-0.5,0.5-0.5,0.6
	c0.2,0.6,0.3,0.9,0.2,1.1c-0.6-0.1-1.2-1.2-2-3.3c-0.7-2.1-1.9-3.1-3.3-3.1c-2.3,0-3.4,1.4-3.4,4.1c0,1.7,0.2,2.8,0.7,3.2
	c1.3,0.9,2.5,1.8,3.8,2.7l-1.2,0.1c-0.4-0.1-1.1-0.5-2-1.4c-0.6-0.6-1.3-1.3-1.9-1.9c0,0.1-0.1,0.2-0.2,0.4
	c-0.1,0.2-0.2,0.4-0.2,0.6c0,3,2.3,6.1,6.9,9.1c4.1,2.7,7.6,4,10.6,4h1.1c0-0.4,0.2-0.8,0.7-1.3c1.7,2.8,3.9,4.1,6.7,4.1
	c1.1,0,2.3-0.2,3.6-0.6c0.8-0.3,1.5-0.9,2.1-1.9c0.6-1,0.9-1.8,0.9-2.4c0-1.3-0.6-2.4-1.8-3.1c-1.2-0.7-2.4-1.1-3.7-1.1
	c-0.3,0-1.5,0.2-3.5,0.6c-0.4-0.4-0.5-0.6-0.5-0.7c0-0.6,0.5-0.8,1.4-0.7l0-2.8c0.1-0.9-0.7-3.6-2.4-8c0.8,0.8,1.6,2.3,2.3,4.6
	c0.6,2,1.2,4,1.8,5.9c1.3,0.1,2.4,0.3,3.3,0.7c1.6,0.7,2.7,1.8,3.4,3.4c0.1-0.1,0.3-0.2,0.4-0.2C52.9,39.7,54,35.9,54,31.2L54,31.2z
	 M28.4,67.8c0,0.1-0.1,0.5-0.4,1c-0.3,0.5-0.4,1-0.4,1.3c0,0.3,0.1,0.5,0.2,0.6c-4.5,0.1-6.8,1.7-6.8,4.8c0,0.6,0.3,1.4,0.8,2.5
	l-1.1,0c-0.5,0-1.3-0.3-2.3-0.9c-1.4-0.8-2.1-2.2-2.1-4.2c0-0.1,0-0.5,0.1-1c0.1-0.5,0.2-0.9,0.3-1.2c0.1-0.2,0.2-0.5,0.4-0.7
	c0.1-1.1,1.3-2.5,3.4-4.1c2.2-1.6,3.8-2.4,4.9-2.4h1.2c-0.1,0.3-0.1,0.5-0.1,0.6c-0.4,0.1-1.1,0.5-2,1.3c-0.9,0.8-1.3,1.5-1.2,2.1
	c-0.1,0.1,0,0.2,0.1,0.3c1.7-1.7,2.7-2.6,2.9-2.7C26.6,66.5,27.3,67.3,28.4,67.8L28.4,67.8z M61.6,63.1c0,0.9-0.5,1.4-1.5,1.4
	c-0.1,0-0.8-0.3-2.1-1c-1.3-0.6-2-1-2.1-1h-1c-0.2,0.3-0.3,0.5-0.3,0.5c0.2,0.4,1,1,2.2,1.8c1.1,0.6,1.6,1.2,1.6,1.7
	c0,0.9-0.7,1.4-2.2,1.4c-1.2,0-2.3-0.7-3.3-2.1c-1-1.4-1.8-2.2-2.5-2.4c-0.4,0.5-0.7,1-0.8,1.4c-0.6,0.8-1.5,1.3-2.7,1.3
	c-2,0-3-0.7-3-2c0-0.8,0.5-1.3,1.4-1.3c0.1,0,0.3,0,0.5,0.1c0.2,0.1,0.4,0.1,0.6,0.1c0.3,0,0.5-0.1,0.6-0.3c-0.1-1,0.2-1.8,0.7-2.3
	c0.5-0.4,1-0.7,1.4-1c-1.1-0.3-2.5-1-4.2-2.2c-1.1-0.9-2.3-1.8-3.5-2.8c-1.8-1.1-3.3-2-4.2-2.5l-0.3,0.4c0,0.2,0.1,0.4,0.3,0.6
	c1.8,0.6,3.2,1.3,4,2.1c0.8,0.7,1.2,1.4,1.2,2.1L41,58.8c-1.9,2.2-4.6,3.3-8.2,3.3c-3.8,0-6.2-0.8-7.1-2.5c-0.2-0.4-0.3-1.2-0.3-2.4
	c0-1.1,0.1-2.1,0.3-3c0.8-3.1,1.6-5.4,2.2-7l0-0.7c-0.6,0.4-1,0.6-1.2,0.8c-2.2-1.3-4.4-2.7-6.5-4.1c-3.8-2.5-5.6-4.3-5.6-5.5
	c0-1.1,0.7-1.8,2.2-2.1c2.2,3.8,5.3,6.8,9.4,8.8c2.5,1.3,4.9,2.1,7,2.5c1.3,0.1,2.4,0.1,3.1,0.1c0.6,0.4,1.1,0.8,1.5,1.1
	c1.4,0.6,2.5,1.1,3.3,1.4c1.1,0.7,3.1,2.2,5.9,4.5c2.4,1.9,3.7,2.9,3.9,2.9c0.8-0.8,1.7-1.3,2.7-1.3c1,0,2.1,0.5,3.2,1.4
	c1.1,0.9,1.7,1.9,1.8,3l-1.5,0c-0.1,0-0.4-0.1-0.6-0.4c-0.3-0.2-0.5-0.4-0.5-0.5c-0.1,0.1-0.1,0.4-0.2,0.7c-0.1,0.3-0.1,0.5-0.2,0.7
	c1.1,0.1,2.1,0.2,3.2,0.3C60.7,61,61.6,61.9,61.6,63.1L61.6,63.1z M62.4,63.1c0,1.6-0.7,2.4-2.1,2.4c-0.4,0-1.5-0.6-3.4-1.7h-0.2
	c1.8,1.8,2.7,2.8,2.7,3c0,1.3-0.8,2-2.4,2c-1.9,0-3.8-1.4-5.6-4.1c-1.5,1.6-3.2,2.3-5.1,2.3c-1.6,1.9-4,3.4-7.4,4.4v0.2
	c2.5-0.3,4.1-0.3,4.9,0c0.9,0.3,1.7,0.8,2.4,1.7c0.7,0.8,1,1.7,1,2.5c0,2.3-1,4.4-2.9,6c0.1,0.2,0.1,0.6,0.1,1.1
	c-0.1,0.2-0.4,0.4-0.6,0.6c-0.7,0.1-2.2,0.2-4.6,0.5c-2,0.2-3.1,0.3-3.3,0.3l-7.2-0.2c-0.2-0.1-1.5-0.3-3.9-0.7
	c-1.4-0.3-2.6-0.7-3.6-1.4c0.2-1.1,0.5-1.9,0.8-2.4c-0.1-0.2-0.8-0.5-2-0.8C19.6,78.8,19,78.5,18,78c-1.8-0.8-2.8-2.5-2.8-5.1
	c0-2.4,1-4.6,3.1-6.5c2.1-1.9,4.4-3.1,7.1-3.3l0.3-0.3c-1-1.8-1.5-3.5-1.5-5.1c0-1.3,0.3-2.9,0.8-4.9c0.4-1.6,0.8-3.1,1.3-4.6
	c-2.4-1.6-4.8-3.1-7.3-4.6c-3.7-2.4-5.5-4.3-5.5-5.8c0-1.5,1.1-2.4,3.2-2.9c0-0.2,0-0.6-0.1-1.1c-0.1-0.5-0.1-0.9-0.1-1
	c0-0.1,0.1-0.5,0.2-1c0.1-0.5,0.2-0.9,0.3-1.1c-0.1-0.8-0.2-1.9-0.1-3.5c0.1-0.8,0.6-1.5,1.3-2.1c0.7-0.6,1.5-0.9,2.2-0.8
	c0.1-0.2,0.1-0.5-0.1-1c-0.1-0.4-0.2-0.7-0.2-0.7c0-1.4,0.7-2.4,2.2-3c1.3-0.5,2.5-1,3.7-1.4c0.3-0.3,0.8-0.8,1.6-1.5
	c-1.1-0.8-2.1-1.6-3.2-2.3c-1.3-1-1.9-2.2-1.9-3.5c0-0.7,0.3-1.4,0.8-2.2C24,8.1,24.5,7.8,25,7.7C27.9,7.3,29.7,7,30.7,7
	c1.8,0,4.2,0.5,7.1,1.4c2.9,1,4.7,1.6,5.6,2.1c2.1,0.9,3.7,2.2,5,3.8c3.3,3.9,5.5,8.1,6.5,12.6c0.3,1.4,0.4,2.9,0.4,4.5
	c0,1.8-0.3,3.8-0.8,6.2c-0.5,2.1-0.9,3.4-1.3,4c-0.7,0.8-1.6,1.9-2.8,3.5c-0.9,1.8-2,3.1-3.3,3.7c-0.4,0.1-1.7,0.5-4.1,1l8,6
	c1.1-0.8,2.1-1.2,3-1.2c1.1,0,2.2,0.4,3.2,1.3c0.6,1.1,1.5,2.5,2.8,4.2c0.6,0.4,1.4,1,2.4,1.9C62.3,62.4,62.4,62.7,62.4,63.1
	L62.4,63.1z M18.1,20.3c-0.4,0-1.5,0-3.2,0c-1.2,0-3.1,0.2-5.6,0.7c1.3-0.9,3.3-1.4,5.8-1.4C16.4,19.6,17.4,19.8,18.1,20.3
	L18.1,20.3z M13.4,18.6c-1.1,0.2-2.8,0.5-4.9,0.7c2.8-0.9,4.2-1.4,4.2-1.4C13.2,17.9,13.4,18.1,13.4,18.6L13.4,18.6z M18.8,21.5
	c-12,1.1-17.9,5-17.9,11.5c0,2.9,1.6,6.2,4.8,9.9C8,45.6,10.8,48,14,50.2c-0.5-0.1-1.2-0.3-2-0.6C4,43.3,0,37.9,0,33.3
	c0-1.7,0.5-3.3,1.4-4.8C1.5,28.3,1.7,28,2,27.7c1.5-2.1,3.6-3.6,6.4-4.7c0.3-0.1,1.5-0.5,3.7-1c2.7-0.6,4.5-0.8,5.4-0.8
	c0.2,0,0.4,0.1,0.7,0.2C18.4,21.5,18.6,21.5,18.8,21.5z"/>
</svg>
